#N canvas 231 47 760 481 10;
#X obj 258 102 dac~, f 11;
#X text 257 19 mélangeur;
#X obj 521 96 metro;
#X obj 521 118 bng 15 250 50 0 empty empty empty 17 7 0 10 -262144
-1 -1;
#X msg 548 72 1000;
#X floatatom 20 97 5 0 0 0 - - -, f 5;
#X text 20 73 duree totale (s);
#X obj 376 101 /;
#X obj 20 43 bng 15 250 50 0 empty empty empty 17 7 0 10 -262144 -1
-1;
#X floatatom 376 127 5 0 0 0 - - -, f 5;
#X msg 376 69 1;
#X obj 558 297 expr~ $v1 > 0.5;
#X obj 558 320 unsig~ 5;
#X floatatom 556 387 5 0 0 0 - - -, f 5;
#X obj 556 428 line~;
#X obj 556 408 pack 0 50;
#X text 19 21 zéro;
#X text 135 73 tempi;
#X floatatom 137 119 5 0 0 0 - - -, f 5;
#X floatatom 249 420 5 0 0 0 - - -, f 5;
#X floatatom 136 98 5 0 0 0 - - -, f 5;
#X obj 262 250 -, f 4;
#X floatatom 262 272 5 0 0 0 - - -, f 5;
#X floatatom 394 260 5 0 0 0 - - -, f 5;
#X obj 394 237 f+, f 10;
#X obj 520 50 loadbang;
#X obj 394 306 *;
#X obj 250 395 +;
#X obj 426 332 min;
#X obj 249 441 s tempo;
#X msg 393 332 1;
#X obj 558 275 phasor~;
#X obj 392 364 -;
#X floatatom 390 434 5 0 0 0 - - -, f 5;
#X obj 557 365 clip 0 1;
#X obj 557 342 +;
#X obj 257 43 adc~;
#X obj 257 73 *~;
#X obj 407 71 r duree;
#X obj 20 119 s duree;
#X obj 40 42 s zero;
#X obj 422 212 r zero;
#X obj 376 44 r zero;
#X text 374 21 calcul de la pente;
#X obj 376 150 s pente;
#X obj 292 42 r~ facteur;
#X obj 556 449 s~ facteur;
#X obj 522 141 s pouls;
#X floatatom 558 254 5 0 0 0 - - -, f 5;
#X obj 558 209 r tempo;
#X obj 558 232 / 60;
#X text 594 386 facteur pour le tremolo;
#X text 557 175 onde carrée (0 \, 1) multipliée par le facteur,
f 26;
#X obj 408 282 r pente;
#X obj 615 319 r amplitude;
#X obj 390 458 s amplitude;
#X obj 371 213 r pouls;
#X text 368 176 calcul de l'amplitude pente * secondes, f 22;
#X obj 262 296 /;
#X obj 263 371 *;
#X obj 288 346 min;
#X obj 288 298 r duree;
#X obj 303 322 r sec;
#X obj 300 272 r duree;
#X obj 432 260 s sec;
#X text 520 25 pouls : un bang par sec;
#X obj 173 99 s tdepart;
#X obj 173 119 s tcible;
#X obj 250 198 r tdepart;
#X obj 261 226 r tcible;
#X floatatom 337 391 5 0 0 0 - - -, f 5;
#X obj 72 95 r pouls;
#X text 249 176 calcul du tempo;
#X obj 19 195 hsl 205 17 0 1 0 0 empty amplitude empty -2 -8 0 10 -262144
-1 -1 11220 1;
#X obj 25 153 tgl 15 0 empty empty empty 17 7 0 10 -262144 -1 -1 0
1;
#X obj 391 411 abs;
#X obj 391 389 -;
#X obj 425 366 r croissant;
#X obj 26 173 s croissant;
#X connect 2 0 3 0;
#X connect 3 0 47 0;
#X connect 4 0 2 1;
#X connect 5 0 39 0;
#X connect 7 0 9 0;
#X connect 8 0 40 0;
#X connect 9 0 44 0;
#X connect 10 0 7 0;
#X connect 11 0 12 0;
#X connect 12 0 35 0;
#X connect 13 0 15 0;
#X connect 14 0 46 0;
#X connect 15 0 14 0;
#X connect 18 0 67 0;
#X connect 19 0 29 0;
#X connect 20 0 66 0;
#X connect 21 0 22 0;
#X connect 22 0 58 0;
#X connect 23 0 26 0;
#X connect 23 0 64 0;
#X connect 24 0 23 0;
#X connect 25 0 2 0;
#X connect 25 0 4 0;
#X connect 26 0 28 1;
#X connect 27 0 19 0;
#X connect 28 0 32 1;
#X connect 30 0 32 0;
#X connect 30 0 28 0;
#X connect 31 0 11 0;
#X connect 32 0 76 0;
#X connect 33 0 55 0;
#X connect 34 0 13 0;
#X connect 35 0 34 0;
#X connect 36 0 37 0;
#X connect 36 1 37 0;
#X connect 37 0 0 1;
#X connect 37 0 0 0;
#X connect 38 0 7 1;
#X connect 41 0 24 1;
#X connect 42 0 10 0;
#X connect 45 0 37 1;
#X connect 48 0 31 0;
#X connect 49 0 50 0;
#X connect 50 0 48 0;
#X connect 53 0 26 1;
#X connect 54 0 35 1;
#X connect 56 0 24 0;
#X connect 56 0 30 0;
#X connect 58 0 59 0;
#X connect 59 0 27 1;
#X connect 60 0 59 1;
#X connect 60 0 70 0;
#X connect 61 0 60 0;
#X connect 62 0 60 1;
#X connect 63 0 58 1;
#X connect 68 0 27 0;
#X connect 68 0 21 1;
#X connect 69 0 21 0;
#X connect 71 0 5 0;
#X connect 71 0 20 0;
#X connect 71 0 18 0;
#X connect 74 0 78 0;
#X connect 75 0 33 0;
#X connect 76 0 75 0;
#X connect 77 0 76 1;
